<svg width="60" height="60" viewBox="0 0 60 60" fill="none" xmlns="http://www.w3.org/2000/svg">
<g clip-path="url(#clip0_98_30)">
<path d="M14.9561 59.1207C22.7302 59.1207 29.0323 52.8186 29.0323 45.0445C29.0323 37.2704 22.7302 30.9683 14.9561 30.9683C7.18202 30.9683 0.879883 37.2704 0.879883 45.0445C0.879883 52.8186 7.18202 59.1207 14.9561 59.1207Z" fill="#FFAC00"/>
<path d="M21.1419 32.3977C19.0017 34.2606 18.3966 37.396 19.8181 39.9636C20.8953 41.9095 22.9472 43.1185 25.1733 43.1186H25.1737C26.2697 43.1186 27.349 42.8214 28.2949 42.2592L28.7045 42.0156C27.7754 37.7799 24.9397 34.2588 21.1419 32.3977Z" fill="#FF5528"/>
<path d="M33.739 5.14709L32.1119 6.77413C31.4374 7.44866 30.6086 7.94834 29.6974 8.23018L19.6161 11.3477C17.5536 11.9855 15.6654 13.0892 14.0976 14.5734L8.83615 19.5544C8.10314 20.2483 7.70341 21.2236 7.73845 22.2322L8.10419 32.7467C10.0528 31.6587 12.2864 31.0203 14.6652 30.9719L15.2977 25.9898C15.3792 25.3492 15.721 24.7703 16.2429 24.3897L20.007 21.645C20.6594 21.1692 21.5109 21.0624 22.2606 21.3624L27.6692 23.5258C28.6201 23.9062 29.2145 24.8594 29.1372 25.8807L28.8882 29.1803C28.8314 29.9346 28.4141 30.6152 27.7678 31.0082L23.2101 33.7796C21.482 34.8306 20.8908 37.0578 21.8704 38.8276C22.901 40.6894 25.2669 41.33 27.0961 40.2428L36.2838 34.7815C38.9734 33.1828 40.8153 30.4733 41.3126 27.3842L42.2222 21.7339C42.379 20.7596 42.839 19.8596 43.5368 19.1619L45.6452 17.0535L33.739 5.14709Z" fill="#FDD8A8"/>
<path d="M60.0001 0.000488281H35.3373L31.9648 3.37291L47.3608 18.7688L60.0001 6.12951V0.000488281Z" fill="#1A685B"/>
<path d="M45.7019 17.1099L47.3608 18.7687L60.0001 6.12946V2.81165L45.7019 17.1099Z" fill="#122F2A"/>
<path d="M14.9561 28.6222C12.4766 28.6222 10.1242 29.1757 8.0144 30.1638L8.10429 32.7467C10.0529 31.6586 12.2865 31.0203 14.6653 30.9719L14.9636 28.6222C14.961 28.6223 14.9586 28.6222 14.9561 28.6222Z" fill="#FFC477"/>
<path d="M33.739 5.14709L32.112 6.77413C32.1013 6.78479 32.0899 6.79452 32.0792 6.80506L42.3274 17.0532L41.8777 17.5029C40.8244 18.5562 40.1426 19.8903 39.9058 21.361L38.9962 27.0112C38.6083 29.4206 37.1828 31.5177 35.0849 32.7646L25.8971 38.226C24.6703 38.7322 23.2592 38.4506 22.3206 37.5122L21.4194 36.6109C21.3414 37.3539 21.4822 38.1266 21.8702 38.8274C22.9007 40.6891 25.2666 41.3298 27.0958 40.2425L36.2835 34.7812C38.9731 33.1826 40.8151 30.4731 41.3123 27.384L42.2219 21.7337C42.3787 20.7594 42.8388 19.8594 43.5365 19.1617L45.6449 17.0532L33.739 5.14709Z" fill="#FFC477"/>
<path d="M15.7339 44.1647H14.178C13.3048 44.1647 12.5944 43.4543 12.5944 42.5812C12.5944 41.708 13.3048 40.9976 14.178 40.9976H19.0615V39.238H15.9999V36.0122H14.2403V39.238H14.1778C12.3345 39.238 10.8347 40.7378 10.8347 42.5812C10.8347 44.4245 12.3345 45.9243 14.1778 45.9243H15.7337C16.6069 45.9243 17.3173 46.6347 17.3173 47.5078C17.3173 48.381 16.6069 49.0914 15.7337 49.0914H10.8503V50.851H14.2403V54.0768H15.9999V50.8395C17.7191 50.7033 19.0769 49.2617 19.0769 47.5078C19.0769 45.6645 17.5772 44.1647 15.7339 44.1647Z" fill="#1F1F1F"/>
<path d="M45.6455 18.2978L47.3606 20.0129L59.9183 7.45419L58.6741 6.21013L47.3609 17.5246L33.2089 3.3729L35.2555 1.32634L34.0112 0.0822754L30.7207 3.3729L32.4953 5.14747L31.4895 6.15259C30.9182 6.72388 30.2087 7.15161 29.4376 7.38985L19.3564 10.5066C17.1775 11.1809 15.1499 12.3659 13.4926 13.9341L8.23195 18.9155C7.31543 19.782 6.81516 21.0022 6.85922 22.2633L7.20703 32.2565C2.88961 34.8825 0 39.6324 0 45.0444C0 53.2913 6.70922 60.0005 14.9561 60.0005C23.2029 60.0005 29.9121 53.2913 29.9121 45.0444C29.9121 43.3391 29.6293 41.6766 29.0712 40.0915L36.7336 35.5378C39.6553 33.8012 41.6409 30.8803 42.1814 27.5243L43.0904 21.8741C43.219 21.077 43.5884 20.3542 44.1587 19.784L45.6455 18.2978ZM14.9561 58.2409C7.67941 58.2409 1.75957 52.3211 1.75957 45.0444C1.75957 37.7678 7.67941 31.8479 14.9561 31.8479C17.4076 31.8479 19.7573 32.5111 21.8194 33.7725C20.9906 34.6267 20.5185 35.772 20.5185 37.0034C20.5185 37.7869 20.72 38.565 21.1012 39.2534C21.6771 40.2943 22.6034 41.0574 23.7262 41.4222C23.8011 41.4464 23.8768 41.4689 23.9534 41.4898C24.3591 41.5997 24.7704 41.654 25.1787 41.654C25.9001 41.654 26.6123 41.4842 27.2678 41.1511C27.3543 41.1073 27.4393 41.0597 27.5237 41.0101C27.9408 42.3065 28.1524 43.6589 28.1524 45.0445C28.1525 52.3211 22.2326 58.2409 14.9561 58.2409ZM15.6619 30.1064L16.1701 26.1019C16.2213 25.702 16.4366 25.3374 16.7613 25.101L20.526 22.3558C20.5772 22.3184 20.6303 22.2845 20.6848 22.2544C20.903 22.134 21.145 22.0727 21.3892 22.0731C21.5113 22.0733 21.634 22.0889 21.7547 22.1203C21.815 22.136 21.8748 22.1556 21.9336 22.1794L27.3427 24.3426C27.9395 24.581 28.3083 25.1729 28.2605 25.8145L28.0105 29.1141C27.9887 29.4079 27.8782 29.685 27.7 29.9113C27.593 30.047 27.4617 30.1647 27.3104 30.2567L23.3502 32.6654C21.064 31.1093 18.4294 30.2339 15.6619 30.1064ZM42.9148 18.5397C42.6543 18.8002 42.4223 19.0825 42.221 19.3829C41.7779 20.0441 41.4824 20.7936 41.3532 21.5944L40.4442 27.2447C39.987 30.0844 38.3066 32.5558 35.8345 34.0253L26.6461 39.4858C25.9678 39.889 25.175 39.9975 24.4133 39.7913C24.1279 39.7139 23.8609 39.5961 23.6186 39.4429C23.2147 39.1873 22.8793 38.8327 22.6406 38.4012C22.4627 38.0799 22.3477 37.7276 22.3013 37.3665C22.2858 37.2462 22.2779 37.1248 22.2779 37.0034C22.2779 35.9845 22.7973 35.0605 23.6678 34.5315L28.2248 31.7598C29.1123 31.2203 29.6882 30.2801 29.7653 29.2458L30.0151 25.9463C30.0546 25.4168 29.9653 24.9028 29.7688 24.4396C29.4412 23.6676 28.8165 23.0363 27.996 22.7085L22.5877 20.5457C21.55 20.1299 20.3913 20.2752 19.4888 20.9342L15.7252 23.6787C15.6359 23.7437 15.5505 23.813 15.469 23.8865C14.9392 24.3635 14.5778 25.0099 14.4502 25.7152C14.4403 25.7694 14.4319 25.8242 14.4248 25.8791L13.8858 30.127C12.1364 30.2514 10.4695 30.6782 8.9366 31.3548L8.61797 22.2019C8.59148 21.4454 8.8916 20.7136 9.44156 20.1934L14.7023 15.2118C16.1645 13.8286 17.9538 12.7828 19.8764 12.188L29.9571 9.07138C31.0007 8.74899 31.9607 8.16997 32.7334 7.39735L33.7393 6.39212L44.4014 17.0542L42.9148 18.5397Z" fill="#1F1F1F"/>
<path d="M19.9134 55.3503L19.1484 53.7658C19.6308 53.5329 20.0977 53.2574 20.5362 52.9469L21.5531 54.3827C21.035 54.7496 20.4836 55.0751 19.9134 55.3503ZM23.0095 53.1583L21.77 51.9095C22.1513 51.5313 22.5032 51.1188 22.8164 50.6835L24.2447 51.7113C23.8748 52.2249 23.4592 52.7118 23.0095 53.1583ZM25.2241 50.0795L23.6455 49.3026C24.3011 47.9705 24.6335 46.5379 24.6335 45.0445C24.6335 44.9363 24.6318 44.8285 24.6284 44.7209L26.387 44.6642C26.3911 44.7906 26.3931 44.9173 26.3931 45.0445C26.3931 46.8097 25.9998 48.5036 25.2241 50.0795Z" fill="white"/>
<path d="M7.96578 54.0913C6.81711 53.2018 5.85898 52.1189 5.11801 50.8724L6.63055 49.9733C7.2582 51.0291 8.06984 51.9464 9.04309 52.7001L7.96578 54.0913ZM4.28492 49.16C4.05594 48.5683 3.8757 47.9531 3.74902 47.3317L5.47309 46.9802C5.58008 47.5053 5.73242 48.0253 5.9259 48.5252L4.28492 49.16Z" fill="white"/>
<path d="M5.69008 42.2491L4.00586 41.7399C4.18926 41.1335 4.42539 40.5377 4.70805 39.9692L6.28363 40.7526C6.04469 41.2331 5.84512 41.7367 5.69008 42.2491ZM7.11836 39.3745L5.69418 38.341C6.92348 36.6469 8.58789 35.3213 10.5073 34.5082L11.1938 36.1284C9.5691 36.8167 8.1598 37.9392 7.11836 39.3745Z" fill="white"/>
<path d="M51.3343 11.0624L50.0901 9.81837L51.3342 8.57419L52.5783 9.81825L51.3343 11.0624ZM53.8225 8.57396L52.5783 7.32989L56.1859 3.72192L57.4301 4.96599L53.8225 8.57396Z" fill="white"/>
<path d="M46.7386 14.4141L45.4945 13.17L46.7387 11.9259L47.9828 13.17L46.7386 14.4141ZM44.2502 11.9257L43.0062 10.6816L44.2504 9.43758L45.4944 10.6816L44.2502 11.9257ZM41.7619 9.43734L36.3196 3.99504L37.5638 2.75098L43.0061 8.19328L41.7619 9.43734Z" fill="white"/>
<path d="M29.9511 35.4752L29.0522 33.9625L30.5648 33.0636L31.4638 34.5762L29.9511 35.4752ZM32.9763 33.6774L32.0772 32.1647L33.5899 31.2659L34.4889 32.7786L32.9763 33.6774ZM36.0657 31.6997L34.9167 30.3672C35.7299 29.6659 36.3472 28.7594 36.7017 27.7454L38.3627 28.326C37.9065 29.6308 37.1122 30.7974 36.0657 31.6997Z" fill="white"/>
<path d="M27.0634 13.649L26.5437 11.968L28.2248 11.4483L28.7445 13.1293L27.0634 13.649ZM30.4254 12.6096L29.9058 10.9285L30.4764 10.7523C31.1235 10.5522 31.7486 10.2731 32.3339 9.92236L33.2383 11.4317C32.532 11.855 31.7775 12.1919 30.9959 12.4335L30.4254 12.6096Z" fill="white"/>
<path d="M14.8938 19.8769L13.6841 18.5992L14.9618 17.3893L16.1715 18.667L14.8938 19.8769ZM17.4272 17.4905L16.2745 16.1611C17.4677 15.1264 18.8928 14.3338 20.3956 13.8688L20.9157 15.5497C19.6441 15.9431 18.4378 16.6141 17.4272 17.4905Z" fill="white"/>
</g>
<defs>
<clipPath id="clip0_98_30">
<rect width="60" height="60" fill="white" transform="translate(0 0.000488281)"/>
</clipPath>
</defs>
</svg>
