<svg width="60" height="60" viewBox="0 0 60 60" fill="none" xmlns="http://www.w3.org/2000/svg">
<g clip-path="url(#clip0_95_3)">
<path d="M46.7 35.9105L49.02 33.2605C49.3947 32.8317 49.8911 32.5273 50.4432 32.388C50.9953 32.2486 51.5767 32.2809 52.11 32.4805L52.94 22.3805C52.9705 21.7901 53.2076 21.2293 53.6097 20.7961C54.0119 20.3628 54.5536 20.0847 55.14 20.0105C55.4597 19.9797 55.7823 20.0131 56.089 20.1085C56.3957 20.2039 56.6802 20.3596 56.926 20.5663C57.1718 20.773 57.374 21.0266 57.5206 21.3124C57.6672 21.5981 57.7554 21.9102 57.78 22.2305L58.99 37.4205C59.07 38.437 58.7588 39.4457 58.12 40.2405L47.88 52.9005C47.3103 53.6092 46.9998 54.4912 47 55.4005V58.0005C47 58.2657 46.8946 58.52 46.7071 58.7076C46.5196 58.8951 46.2652 59.0005 46 59.0005H38C37.7348 59.0005 37.4804 58.8951 37.2929 58.7076C37.1054 58.52 37 58.2657 37 58.0005V48.8805C36.9999 47.6696 37.4407 46.5 38.24 45.5905L46.7 35.9105Z" fill="#FFE0B2"/>
<path d="M57.78 22.2305C57.7554 21.9102 57.6672 21.5981 57.5206 21.3124C57.374 21.0266 57.1718 20.773 56.926 20.5663C56.6802 20.3596 56.3957 20.2039 56.089 20.1085C55.7823 20.0131 55.4597 19.9797 55.14 20.0105C54.6758 20.0557 54.2365 20.2416 53.881 20.5435C53.923 20.5775 53.97 20.6035 54.01 20.6435C54.4567 21.0584 54.7314 21.6258 54.78 22.2335L55.99 37.4235C56.07 38.44 55.7588 39.4487 55.12 40.2435L44.88 52.9005C44.3103 53.6092 43.9998 54.4912 44 55.4005V58.0005C44 58.2657 43.8946 58.52 43.7071 58.7076C43.5196 58.8951 43.2652 59.0005 43 59.0005H46C46.2652 59.0005 46.5196 58.8951 46.7071 58.7076C46.8946 58.52 47 58.2657 47 58.0005V55.4005C46.9998 54.4912 47.3103 53.6092 47.88 52.9005L58.12 40.2405C58.7588 39.4457 59.07 38.437 58.99 37.4205L57.78 22.2305Z" fill="#DFC49C"/>
<path d="M22.9999 48.8805V58.0005C22.9999 58.2657 22.8946 58.52 22.707 58.7076C22.5195 58.8951 22.2651 59.0005 21.9999 59.0005H13.9999C13.7347 59.0005 13.4803 58.8951 13.2928 58.7076C13.1053 58.52 12.9999 58.2657 12.9999 58.0005V55.4005C13.0001 54.4912 12.6896 53.6092 12.1199 52.9005L1.87991 40.2405C1.24107 39.4457 0.929871 38.437 1.00991 37.4205L2.21991 22.2305C2.24449 21.9102 2.33268 21.5981 2.47931 21.3124C2.62594 21.0266 2.82807 20.773 3.07388 20.5663C3.3197 20.3596 3.60426 20.2039 3.91092 20.1085C4.21759 20.0131 4.54021 19.9797 4.85991 20.0105C5.44604 20.0855 5.98727 20.3638 6.38929 20.7969C6.79131 21.23 7.02864 21.7904 7.05991 22.3805L7.88991 32.4805C8.42318 32.2809 9.00462 32.2486 9.5567 32.388C10.1088 32.5273 10.6053 32.8317 10.9799 33.2605L21.7599 45.5905C22.5593 46.5 23 47.6696 22.9999 48.8805Z" fill="#FFE0B2"/>
<path d="M36 12.0005C35.9961 12.5297 35.7841 13.0361 35.4099 13.4104C35.0357 13.7846 34.5292 13.9966 34 14.0005H26C25.4701 13.9989 24.9623 13.7877 24.5875 13.413C24.2128 13.0382 24.0016 12.5304 24 12.0005C24.0039 11.4713 24.2159 10.9648 24.5901 10.5906C24.9643 10.2164 25.4708 10.0044 26 10.0005H34C34.5299 10.0021 35.0377 10.2133 35.4125 10.588C35.7872 10.9628 35.9984 11.4705 36 12.0005Z" fill="#FFAC00"/>
<path d="M35.76 6.68052C35.1578 7.86179 34.4303 8.97486 33.59 10.0005H26.41C25.5698 8.97486 24.8422 7.86179 24.24 6.68052C24.0801 6.34662 23.998 5.98076 24 5.61053C23.9867 4.9484 24.2302 4.30682 24.6795 3.82025C25.1288 3.33369 25.7489 3.03993 26.41 3.00052C26.7591 2.36266 27.2813 1.83646 27.9165 1.48259C28.5517 1.12872 29.274 0.961608 30 1.00052C31.0259 0.969815 32.0257 1.32688 32.8 2.00052C33.1236 2.2815 33.3916 2.6207 33.59 3.00052C34.0093 3.03014 34.4151 3.1612 34.7725 3.38242C35.1299 3.60365 35.4282 3.90841 35.6417 4.27048C35.8552 4.63255 35.9776 5.04109 35.9982 5.46091C36.0188 5.88074 35.9371 6.29929 35.76 6.68052Z" fill="#1A685B"/>
<path d="M33.59 3.00049C33.3915 2.62066 33.1236 2.28146 32.8 2.00049C32.0257 1.32684 31.0259 0.969776 30 1.00049C29.4891 0.998922 28.9817 1.08518 28.5 1.25549C28.9773 1.4176 29.4188 1.67059 29.8 2.00049C30.1236 2.28146 30.3915 2.62066 30.59 3.00049C31.0093 3.0301 31.4151 3.16116 31.7725 3.38238C32.1299 3.60361 32.4282 3.90837 32.6417 4.27044C32.8552 4.63251 32.9775 5.04105 32.9981 5.46087C33.0187 5.8807 32.937 6.29925 32.76 6.68049C32.1578 7.86175 31.4303 8.97482 30.59 10.0005H33.59C34.4303 8.97482 35.1578 7.86175 35.76 6.68049C35.937 6.29925 36.0187 5.8807 35.9981 5.46087C35.9775 5.04105 35.8552 4.63251 35.6417 4.27044C35.4282 3.90837 35.1299 3.60361 34.7725 3.38238C34.4151 3.16116 34.0093 3.0301 33.59 3.00049Z" fill="#FFAC00"/>
<path d="M47.0001 33.0005C47.0092 33.9787 46.9086 34.9548 46.7001 35.9105L41.0401 42.3805C38.1501 43.5905 34.3501 44.0005 30.0001 44.0005C25.6501 44.0005 21.8501 43.5905 18.9601 42.3805L13.3001 35.9105C13.0916 34.9548 12.9909 33.9787 13.0001 33.0005C13.0001 26.3505 19.0001 17.0005 26.0001 14.0005H34.0001C40.0001 16.0005 47.0001 26.3505 47.0001 33.0005Z" fill="#1A685B"/>
<path d="M34 14.0005H31C37 16.0005 44 26.3505 44 33.0005C44.0092 33.9787 43.9085 34.9548 43.7 35.9105L38.04 42.3805C34.9826 43.4851 31.7505 44.0271 28.5 43.9805C28.993 43.9925 29.492 43.9995 30 43.9995C34.35 43.9995 38.15 43.5895 41.04 42.3795L46.7 35.9095C46.9085 34.9541 47.0091 33.9783 47 33.0005C47 26.3505 40 16.0005 34 14.0005Z" fill="#FFAC00"/>
<path d="M57.6851 19.9005C57.2028 19.4586 56.604 19.164 55.9597 19.0516C55.3153 18.9392 54.6522 19.0135 54.0487 19.2659C53.4453 19.5183 52.9267 19.9382 52.5543 20.476C52.1818 21.0137 51.9711 21.6468 51.9471 22.3005L51.2031 31.3005C50.6482 31.287 50.0973 31.3967 49.5898 31.6214C49.0823 31.8462 48.631 32.1805 48.2681 32.6005L48.0001 32.9165C47.9501 26.4495 42.0781 17.2835 36.2611 13.9565C36.5635 13.6146 36.7828 13.2075 36.9021 12.7669C37.0213 12.3263 37.0371 11.8641 36.9484 11.4163C36.8596 10.9686 36.6687 10.5474 36.3904 10.1856C36.1121 9.82378 35.754 9.53114 35.3441 9.33046C35.8447 8.62437 36.2868 7.87856 36.666 7.10046C36.9221 6.54671 37.0337 5.93708 36.9904 5.32852C36.947 4.71995 36.7501 4.13231 36.418 3.62046C36.1719 3.22078 35.8466 2.87573 35.462 2.60658C35.0774 2.33742 34.6418 2.14987 34.182 2.05546C33.709 1.39408 33.0795 0.860223 32.3497 0.501614C31.6199 0.143005 30.8126 -0.029176 30 0.000463074C29.1873 -0.0289519 28.3799 0.143536 27.6501 0.502501C26.9203 0.861465 26.2909 1.39571 25.8181 2.05746C25.3583 2.15187 24.9227 2.33942 24.5381 2.60858C24.1535 2.87773 23.8282 3.22278 23.582 3.62246C23.2498 4.13423 23.0528 4.72189 23.0095 5.33049C22.9661 5.9391 23.0778 6.54875 23.334 7.10246C23.7149 7.88004 24.1588 8.62519 24.661 9.33046C24.2452 9.53467 23.883 9.83332 23.6032 10.2025C23.3234 10.5717 23.1339 11.0013 23.0497 11.4568C22.9656 11.9123 22.9892 12.3812 23.1186 12.826C23.248 13.2708 23.4796 13.6792 23.795 14.0185C17.45 17.7455 12.049 26.1885 12.005 32.9185L11.732 32.6075C11.3706 32.1858 10.9195 31.8502 10.4117 31.6253C9.90387 31.4004 9.35221 31.2918 8.79705 31.3075L8.05405 22.3145C8.00725 21.4869 7.67016 20.7024 7.10207 20.0988C6.53397 19.4952 5.77125 19.1113 4.94805 19.0145C4.47 18.9747 3.98887 19.0334 3.53443 19.187C3.07999 19.3406 2.66191 19.5858 2.30605 19.9075C1.67565 20.493 1.28807 21.2938 1.22005 22.1515L0.0160451 37.3435C-0.0860475 38.6129 0.301847 39.8732 1.10005 40.8655L11.343 53.5295C11.7669 54.0611 11.9984 54.7205 12 55.4005V58.0005C12 58.5309 12.2108 59.0396 12.5858 59.4147C12.9609 59.7898 13.4696 60.0005 14 60.0005H22C22.5305 60.0005 23.0392 59.7898 23.4143 59.4147C23.7893 59.0396 24 58.5309 24 58.0005V48.8795C23.9999 47.4261 23.4722 46.0221 22.515 44.9285L21.991 44.3285C24.6314 44.8205 27.3146 45.0457 30 45.0005C32.6855 45.0457 35.3687 44.8205 38.009 44.3285L37.4851 44.9285C36.5279 46.0221 36.0002 47.4261 36 48.8795V58.0005C36 58.5309 36.2108 59.0396 36.5858 59.4147C36.9609 59.7898 37.4696 60.0005 38 60.0005H46C46.5305 60.0005 47.0392 59.7898 47.4143 59.4147C47.7893 59.0396 48.0001 58.5309 48.0001 58.0005V55.4005C48.0007 54.7212 48.2312 54.0621 48.6541 53.5305L58.9001 40.8615C59.6962 39.8698 60.0826 38.611 59.9801 37.3435L58.7801 22.1515C58.7108 21.2902 58.3199 20.4866 57.6851 19.9005ZM26 13.0005C25.7348 13.0005 25.4805 12.8951 25.2929 12.7076C25.1054 12.52 25 12.2657 25 12.0005C25 11.7352 25.1054 11.4809 25.2929 11.2934C25.4805 11.1058 25.7348 11.0005 26 11.0005H34C34.2653 11.0005 34.5196 11.1058 34.7072 11.2934C34.8947 11.4809 35 11.7352 35 12.0005C35 12.2657 34.8947 12.52 34.7072 12.7076C34.5196 12.8951 34.2653 13.0005 34 13.0005H26ZM25.2701 4.70046C25.3862 4.49676 25.552 4.32575 25.752 4.20336C25.9521 4.08097 26.1798 4.01117 26.414 4.00046C26.6041 3.99785 26.7897 3.94228 26.9499 3.84C27.1101 3.73772 27.2387 3.59277 27.321 3.42146C27.5912 2.95888 27.9851 2.58083 28.4584 2.3298C28.9316 2.07877 29.4655 1.96472 30 2.00046C30.5325 1.96507 31.0643 2.07802 31.5363 2.32676C32.0084 2.57551 32.4022 2.95029 32.674 3.40946C32.7529 3.58541 32.881 3.73481 33.0428 3.83966C33.2046 3.94452 33.3932 4.00036 33.586 4.00046C33.8203 4.01126 34.048 4.0811 34.248 4.20348C34.448 4.32586 34.6138 4.49682 34.73 4.70046C34.8808 4.92827 34.9713 5.19057 34.9932 5.46286C35.015 5.73514 34.9675 6.00853 34.855 6.25746C34.3623 7.22763 33.7744 8.14647 33.1 9.00046H26.9C26.2258 8.14485 25.6382 7.22432 25.146 6.25246C25.0343 6.00426 24.9871 5.73186 25.0088 5.46055C25.0305 5.18923 25.1204 4.92778 25.2701 4.70046ZM22 58.0005H14V55.4005C13.998 54.2634 13.6102 53.1606 12.9 52.2725L2.65705 39.6115C2.17932 39.0165 1.94777 38.261 2.01005 37.5005L3.21005 22.3095C3.23698 21.9506 3.39964 21.6155 3.66493 21.3723C3.93021 21.1291 4.27819 20.9962 4.63805 21.0005C4.68205 21.0005 4.72705 21.0005 4.77105 21.0065C5.12316 21.0593 5.44541 21.2345 5.68115 21.5013C5.91689 21.7681 6.05105 22.1095 6.06005 22.4655L6.83805 31.8875C6.36748 32.1805 5.96671 32.5729 5.66384 33.0371C5.36098 33.5014 5.16336 34.0263 5.08485 34.5751C5.00634 35.1238 5.04883 35.6831 5.20934 36.2137C5.36986 36.7442 5.64452 37.2333 6.01405 37.6465L12.253 44.6645C12.4307 44.8571 12.6768 44.9723 12.9384 44.9853C13.2001 44.9983 13.4564 44.9081 13.6523 44.7342C13.8481 44.5602 13.9679 44.3163 13.9858 44.0549C14.0037 43.7935 13.9184 43.5355 13.748 43.3365L7.50905 36.3175C7.31432 36.0969 7.17615 35.8324 7.10645 35.5465C7.03675 35.2607 7.03762 34.9622 7.10897 34.6768C7.18032 34.3914 7.32002 34.1276 7.51603 33.9082C7.71203 33.6888 7.95845 33.5204 8.23405 33.4175C8.57827 33.2883 8.95378 33.2677 9.31008 33.3583C9.66638 33.449 9.98638 33.6465 10.227 33.9245L21.01 46.2445C21.6479 46.9741 21.9997 47.9103 22 48.8795V58.0005ZM30 43.0005C25.428 43.0005 22.009 42.5165 19.542 41.5305L14.242 35.4695C14.0778 34.6568 13.9967 33.8295 14 33.0005C14 26.4945 19.919 17.8115 26.2281 15.0005H33.808C39.31 16.9475 46 26.7905 46 33.0005C46.0044 33.8294 45.9243 34.6567 45.7611 35.4695L40.461 41.5305C37.991 42.5165 34.572 43.0005 30 43.0005ZM57.3461 39.6075L47.1 52.2795C46.3911 53.1655 46.0034 54.2657 46 55.4005V58.0005H38V48.8795C38.0004 47.9103 38.3522 46.9741 38.9901 46.2445L49.7731 33.9205C49.9419 33.7257 50.1506 33.5694 50.3851 33.4623C50.6195 33.3552 50.8743 33.2996 51.1321 33.2995C51.4818 33.299 51.8242 33.3997 52.1181 33.5894C52.4119 33.7791 52.6447 34.0497 52.7883 34.3687C52.9319 34.6876 52.9802 35.0412 52.9275 35.387C52.8748 35.7327 52.7232 36.0559 52.4911 36.3175L46.252 43.3365C46.162 43.4342 46.0922 43.5488 46.047 43.6738C46.0017 43.7987 45.9818 43.9314 45.9884 44.0642C45.995 44.1969 46.028 44.327 46.0855 44.4468C46.1429 44.5666 46.2237 44.6738 46.3231 44.762C46.4224 44.8503 46.5384 44.9179 46.6641 44.9608C46.7899 45.0037 46.9229 45.0212 47.0555 45.0121C47.1881 45.003 47.3175 44.9676 47.4363 44.9079C47.555 44.8482 47.6607 44.7654 47.7471 44.6645L53.9861 37.6465C54.3556 37.2333 54.6302 36.7442 54.7908 36.2137C54.9513 35.6831 54.9938 35.1238 54.9152 34.5751C54.8367 34.0263 54.6391 33.5014 54.3363 33.0371C54.0334 32.5729 53.6326 32.1805 53.1621 31.8875L53.9411 22.4545C53.9518 22.1004 54.0867 21.7613 54.3221 21.4966C54.5576 21.2319 54.8786 21.0584 55.2291 21.0065C55.4171 20.9871 55.6071 21.0056 55.7879 21.0608C55.9687 21.116 56.1366 21.2069 56.2817 21.3281C56.4269 21.4492 56.5462 21.5982 56.6329 21.7663C56.7195 21.9343 56.7716 22.118 56.7861 22.3065L57.9901 37.5005C58.0525 38.2593 57.8221 39.0132 57.3461 39.6075Z" fill="#1F1F1F"/>
<path d="M30 25.0005C30.5304 25.0005 31.0391 25.2112 31.4142 25.5863C31.7893 25.9613 32 26.4701 32 27.0005C32 27.2657 32.1054 27.5201 32.2929 27.7076C32.4804 27.8951 32.7348 28.0005 33 28.0005C33.2652 28.0005 33.5196 27.8951 33.7071 27.7076C33.8946 27.5201 34 27.2657 34 27.0005C33.9967 26.1163 33.7005 25.2581 33.1577 24.5601C32.6149 23.862 31.8561 23.3635 31 23.1425V22.0005C31 21.7353 30.8946 21.4809 30.7071 21.2934C30.5196 21.1058 30.2652 21.0005 30 21.0005C29.7348 21.0005 29.4804 21.1058 29.2929 21.2934C29.1054 21.4809 29 21.7353 29 22.0005V23.1425C28.0584 23.3848 27.2376 23.9625 26.6916 24.7671C26.1457 25.5717 25.9122 26.5479 26.035 27.5124C26.1577 28.477 26.6283 29.3636 27.3583 30.0058C28.0883 30.648 29.0277 31.0017 30 31.0005C30.3956 31.0005 30.7822 31.1178 31.1111 31.3375C31.44 31.5573 31.6964 31.8697 31.8478 32.2351C31.9991 32.6006 32.0387 33.0027 31.9616 33.3907C31.8844 33.7786 31.6939 34.135 31.4142 34.4147C31.1345 34.6944 30.7781 34.8849 30.3902 34.9621C30.0022 35.0392 29.6001 34.9996 29.2346 34.8482C28.8692 34.6969 28.5568 34.4405 28.3371 34.1116C28.1173 33.7827 28 33.3961 28 33.0005C28 32.7353 27.8946 32.4809 27.7071 32.2934C27.5196 32.1058 27.2652 32.0005 27 32.0005C26.7348 32.0005 26.4804 32.1058 26.2929 32.2934C26.1054 32.4809 26 32.7353 26 33.0005C26.0033 33.8847 26.2995 34.7429 26.8423 35.4409C27.3851 36.1389 28.1439 36.6374 29 36.8585V38.0005C29 38.2657 29.1054 38.5201 29.2929 38.7076C29.4804 38.8951 29.7348 39.0005 30 39.0005C30.2652 39.0005 30.5196 38.8951 30.7071 38.7076C30.8946 38.5201 31 38.2657 31 38.0005V36.8585C31.9416 36.6161 32.7624 36.0384 33.3084 35.2338C33.8543 34.4292 34.0878 33.4531 33.965 32.4885C33.8423 31.524 33.3717 30.6374 32.6417 29.9952C31.9117 29.353 30.9723 28.9993 30 29.0005C29.4696 29.0005 28.9609 28.7898 28.5858 28.4147C28.2107 28.0396 28 27.5309 28 27.0005C28 26.4701 28.2107 25.9613 28.5858 25.5863C28.9609 25.2112 29.4696 25.0005 30 25.0005Z" fill="#1F1F1F"/>
</g>
<defs>
<clipPath id="clip0_95_3">
<rect width="60" height="60" fill="white" transform="translate(0 0.000488281)"/>
</clipPath>
</defs>
</svg>
