<svg width="70" height="70" viewBox="0 0 70 70" fill="none" xmlns="http://www.w3.org/2000/svg">
<path d="M55.7812 56.3281H14.2188C7.58469 56.3281 2.1875 50.9309 2.1875 44.2969V39.9219C2.1875 33.2878 7.58469 27.8906 14.2188 27.8906H55.7812C62.4153 27.8906 67.8125 33.2878 67.8125 39.9219V44.2969C67.8125 50.9309 62.4153 56.3281 55.7812 56.3281ZM14.2188 30.0781C8.79059 30.0781 4.375 34.4937 4.375 39.9219V44.2969C4.375 49.725 8.79059 54.1406 14.2188 54.1406H55.7812C61.2094 54.1406 65.625 49.725 65.625 44.2969V39.9219C65.625 34.4937 61.2094 30.0781 55.7812 30.0781H14.2188Z" fill="#1A685B"/>
<path d="M54.6875 6.01562C47.4499 6.01562 41.5625 11.9031 41.5625 19.1406C42.2829 36.5528 67.0948 36.5478 67.8125 19.1405C67.8125 11.9031 61.925 6.01562 54.6875 6.01562Z" fill="#FFAC00"/>
<path d="M18.0468 45.3906H51.953C57.0022 45.2338 57.0195 37.8971 51.9529 37.7344H18.0468C12.9976 37.8912 12.9803 45.2279 18.0468 45.3906Z" fill="#1A685B"/>
<path d="M24.0625 54.1406H13.125C12.5205 54.1406 12.0312 54.6298 12.0312 55.2344V57.4219C12.0312 61.0406 14.975 63.9844 18.5938 63.9844C22.2125 63.9844 25.1562 61.0406 25.1562 57.4219V55.2344C25.1562 54.6298 24.667 54.1406 24.0625 54.1406Z" fill="#1A685B"/>
<path d="M56.875 54.1406H45.9375C45.333 54.1406 44.8438 54.6298 44.8438 55.2344V57.4219C44.8438 61.0406 47.7875 63.9844 51.4062 63.9844C55.025 63.9844 57.9688 61.0406 57.9688 57.4219V55.2344C57.9688 54.6298 57.4795 54.1406 56.875 54.1406Z" fill="#1A685B"/>
<path d="M32.8125 31.1719C32.208 31.1719 31.7188 30.6827 31.7188 30.0781V27.8906C31.7188 27.2861 32.208 26.7969 32.8125 26.7969C33.417 26.7969 33.9062 27.2861 33.9062 27.8906V30.0781C33.9062 30.6827 33.417 31.1719 32.8125 31.1719Z" fill="#1A685B"/>
<path d="M55.7814 24.6095H51.4064C49.9695 24.585 49.9679 22.4464 51.4064 22.422C51.4064 22.422 55.7814 22.422 55.7814 22.422C56.3844 22.422 56.8752 21.9317 56.8752 21.3282C56.8752 20.7247 56.3844 20.2344 55.7814 20.2344H53.5939C49.2682 20.1221 49.2673 13.7843 53.594 13.6719C53.5939 13.6719 57.9689 13.6719 57.9689 13.6719C58.573 13.6719 59.0627 14.1611 59.0627 14.7656C59.0627 15.3702 58.573 15.8594 57.9689 15.8594H53.5939C52.1568 15.8856 52.1563 18.0211 53.5939 18.0469C53.5939 18.0469 55.7814 18.0469 55.7814 18.0469C60.1071 18.1592 60.108 24.497 55.7814 24.6095Z" fill="#1A685B"/>
<path d="M54.6875 26.7969C54.083 26.7969 53.5938 26.3077 53.5938 25.7031V23.5156C53.5938 22.9111 54.083 22.4219 54.6875 22.4219C55.292 22.4219 55.7812 22.9111 55.7812 23.5156V25.7031C55.7812 26.3077 55.292 26.7969 54.6875 26.7969Z" fill="#1A685B"/>
<path d="M54.6875 15.8594C54.083 15.8594 53.5938 15.3702 53.5938 14.7656V12.5781C53.5938 11.9736 54.083 11.4844 54.6875 11.4844C55.292 11.4844 55.7812 11.9736 55.7812 12.5781V14.7656C55.7812 15.3702 55.292 15.8594 54.6875 15.8594Z" fill="#1A685B"/>
<path d="M14.2188 20.2344C16.635 20.2344 18.5938 22.6828 18.5938 25.7031C18.5938 22.6828 20.5525 20.2344 22.9688 20.2344C20.5525 20.2344 18.5938 17.7859 18.5938 14.7656C18.5938 17.7859 16.635 20.2344 14.2188 20.2344Z" fill="#1A685B"/>
<path d="M54.6875 46.4844C57.1037 46.4844 59.0625 48.9328 59.0625 51.9531C59.0625 48.9328 61.0213 46.4844 63.4375 46.4844C61.0213 46.4844 59.0625 44.0359 59.0625 41.0156C59.0625 44.0359 57.1037 46.4844 54.6875 46.4844Z" fill="#1A685B"/>
<path d="M32.8124 21.3281C21.5811 21.2354 15.4703 34.9549 23.0452 43.2031H42.5796C50.1571 34.9531 44.0387 21.2333 32.8124 21.3281Z" fill="#FFAC00"/>
<path d="M33.9064 39.922H29.5314C28.0945 39.8975 28.0929 37.7589 29.5314 37.7345C29.5314 37.7345 33.9064 37.7345 33.9064 37.7345C34.5093 37.7345 35.0002 37.2442 35.0002 36.6407C35.0002 36.0372 34.5094 35.5469 33.9064 35.5469H31.7189C27.3932 35.4346 27.3923 29.0968 31.719 28.9844C31.7189 28.9844 36.0939 28.9844 36.0939 28.9844C36.698 28.9844 37.1877 29.4736 37.1877 30.0781C37.1877 30.6827 36.698 31.1719 36.0939 31.1719H31.7189C30.2818 31.1981 30.2813 33.3336 31.7189 33.3594C31.7189 33.3594 33.9064 33.3594 33.9064 33.3594C38.2321 33.4717 38.233 39.8095 33.9064 39.922Z" fill="#1A685B"/>
<path d="M32.8125 42.1094C32.208 42.1094 31.7188 41.6202 31.7188 41.0156V38.8281C31.7188 38.2236 32.208 37.7344 32.8125 37.7344C33.417 37.7344 33.9062 38.2236 33.9062 38.8281V41.0156C33.9062 41.6202 33.417 42.1094 32.8125 42.1094Z" fill="#1A685B"/>
</svg>
