<svg width="70" height="70" viewBox="0 0 70 70" fill="none" xmlns="http://www.w3.org/2000/svg">
<path fill-rule="evenodd" clip-rule="evenodd" d="M48.0667 3.5542C52.744 7.65316 58.6578 10.0699 64.867 10.4198C65.8888 23.8654 59.4331 35.1138 48.0667 42.3684C36.7002 35.1138 30.2446 23.8654 31.2665 10.4198C37.4758 10.0699 43.3894 7.65316 48.0667 3.5542Z" fill="#FFAC00"/>
<path fill-rule="evenodd" clip-rule="evenodd" d="M46.3667 25.0257L57.9842 13.9565L61.002 17.1239L46.2926 31.1389L44.7828 29.6292C43.0421 27.8885 41.3022 26.1468 39.5619 24.4057L38.0156 22.8584L41.11 19.7657L42.6564 21.3128C43.8932 22.5505 45.1298 23.7883 46.3667 25.0257Z" fill="#1A685B"/>
<path fill-rule="evenodd" clip-rule="evenodd" d="M12.8307 46.3403L5.03052 50.5392L18.6234 66.445L22.5234 64.3455L21.304 62.0803L14.0527 48.6103L12.8307 46.3403Z" fill="#1A685B"/>
<path fill-rule="evenodd" clip-rule="evenodd" d="M21.304 62.08L25.6287 59.5362L41.5444 62.1674L63.3341 52.9316C64.6376 51.9701 65.3903 49.9343 64.727 47.9132C57.284 50.0683 49.8412 52.2235 42.3982 54.3786L33.5012 52.1779C32.9161 52.0339 32.5584 51.4429 32.7022 50.8577C32.8462 50.2726 33.4372 49.9149 34.0224 50.0587L42.3588 52.1209L44.2697 51.5676C45.0579 49.9239 44.8483 47.7357 42.7669 46.6242L26.0816 42.2485C26.0816 42.2485 21.2723 45.165 14.0894 48.6781L21.304 62.08Z" fill="#D8DDE1"/>
<path fill-rule="evenodd" clip-rule="evenodd" d="M12.3848 47.8188L6.73672 50.8592L18.8786 65.0669L21.043 63.9018L12.3848 47.8188ZM46.3828 23.5011L57.23 13.166C57.6665 12.7508 58.3571 12.768 58.7723 13.2044L61.7901 16.3718C62.2053 16.8084 62.1881 17.4989 61.7517 17.9141L47.0424 31.9293C46.6124 32.3382 45.936 32.3278 45.519 31.9103L37.2402 23.6275C36.8154 23.2004 36.8173 22.5098 37.2444 22.0851L40.3388 18.9924C40.7659 18.5676 41.4564 18.5696 41.8811 18.9967L46.3828 23.5011ZM57.9446 15.4989L47.1163 25.8161C46.6879 26.2235 46.0101 26.2161 45.5911 25.7947L41.1073 21.3082L39.5556 22.859L46.3106 29.6127L59.4572 17.0867L57.9446 15.4989ZM65.9543 10.3387L65.953 10.3388C65.9135 9.79974 65.4787 9.36087 64.9246 9.33052C58.9607 8.99884 53.2833 6.67544 48.7903 2.74095C48.3859 2.37919 47.7656 2.36757 47.3468 2.73398C45.097 4.70573 42.5533 6.2713 39.8288 7.38474C37.1197 8.49189 34.2247 9.15456 31.255 9.32751C30.6922 9.33161 30.2173 9.76747 30.1748 10.3388C29.6569 17.1551 31.005 23.4306 33.9041 28.9441C36.8913 34.6249 41.5247 39.4819 47.4577 43.2734C47.8061 43.5068 48.2737 43.527 48.6499 43.2874C60.2877 35.865 67.0118 24.2553 65.9543 10.3387ZM55.48 9.4012C52.8134 8.31155 50.3116 6.82651 48.0645 4.98314C43.5785 8.66306 38.0732 10.9166 32.2948 11.438C31.9946 17.4725 33.2589 23.0278 35.8351 27.927C38.551 33.0918 42.726 37.5415 48.0645 41.0695C53.4029 37.5415 57.5778 33.0918 60.2938 27.927C62.87 23.0278 64.1344 17.4727 63.8342 11.438C60.9509 11.178 58.1365 10.4869 55.48 9.4012ZM43.0129 54.3505L63.7201 48.3551C63.894 48.9416 63.9173 49.5257 63.8247 50.0642C63.6864 50.8692 63.2956 51.5605 62.7714 51.9861L41.4104 61.0401L25.8015 58.4609C25.5596 58.4214 25.3031 58.4629 25.0753 58.5964L21.7264 60.5664L15.5506 49.0942C21.4237 46.2202 25.0877 44.1068 26.2477 43.4201L42.3578 47.6447C44.0765 48.6455 43.9229 51.0055 42.4616 52.1471L34.0202 50.059C33.435 49.9151 32.844 50.2729 32.7 50.858C32.5561 51.4432 32.9138 52.0342 33.499 52.1782L42.396 54.3789C42.608 54.4309 42.8208 54.4171 43.0129 54.3505ZM25.5115 41.3179C25.7548 41.17 26.0555 41.1165 26.353 41.1936L43.0381 45.5696C43.1196 45.5908 43.1999 45.6218 43.2775 45.6631C45.4536 46.8243 46.2454 49.1254 45.5236 51.3547L64.0247 45.9979C64.5101 45.8481 65.0497 46.0552 65.3021 46.5184C66.0193 47.8286 66.1893 49.2032 65.9782 50.4317C65.7363 51.838 64.9877 53.0667 63.9772 53.8121C63.9769 53.8117 63.7756 53.9272 63.755 53.936L42.0177 63.1494C41.8226 63.2442 41.5974 63.2818 41.3672 63.2443L25.837 60.6769L22.7603 62.4866L23.4827 63.8285C23.7682 64.3594 23.5693 65.0213 23.0384 65.3067L19.1381 67.4059C18.6959 67.6442 18.1324 67.5514 17.7925 67.1542L4.22697 51.2808C3.73246 50.7243 3.89789 49.908 4.51135 49.5781L12.3116 45.379C12.8424 45.0935 13.5043 45.2925 13.7898 45.8233L14.5153 47.1713C21.675 43.6714 25.4996 41.3246 25.5115 41.3179Z" fill="#1F1F1F"/>
</svg>
