<svg width="116" height="62" viewBox="0 0 116 62" fill="none" xmlns="http://www.w3.org/2000/svg">
<path d="M37.4996 47.5948C37.2102 51.4763 38.5258 55.1988 41.1305 58.0735C43.4985 60.67 47.0241 62.4452 50.5761 61.902C57.8905 60.7892 60.4689 52.2314 59.8111 45.7799C59.1665 39.3417 56.1803 33.3274 51.8258 28.6113C56.3118 24.6238 61.3766 21.3252 66.7835 18.742C73.1507 15.7083 80.0441 13.6947 87.0296 12.8204C93.5678 11.999 100.211 12.1315 106.684 13.337C106.46 13.3768 106.223 13.4165 106 13.4563C104.566 13.7212 103.132 14.0524 101.737 14.4498C100.277 14.8737 98.83 15.3241 97.5144 16.0925C96.462 16.7019 97.2513 18.2651 98.3564 17.9869C99.7377 17.6424 101.053 17.0993 102.408 16.6886C103.763 16.278 105.145 15.9335 106.539 15.6553C108.736 15.2314 110.959 14.993 113.196 14.9267C113.235 14.94 113.261 14.9532 113.301 14.9532C113.603 15.046 113.867 15.0195 114.077 14.9002C114.366 14.9002 114.656 14.9002 114.958 14.9002C115.735 14.9002 116.287 13.9332 115.84 13.2708C114.314 11.0452 112.762 8.81967 111.183 6.63384C110.42 5.57405 109.657 4.51426 108.894 3.44122C108.105 2.34169 107.355 1.18917 106.447 0.182364C105.973 -0.334285 105.289 0.35458 105.566 0.910971C106.131 2.07674 106.894 3.16302 107.578 4.2758C108.289 5.41508 109.012 6.5676 109.723 7.70688C110.709 9.29657 111.722 10.8598 112.735 12.4362C105.815 10.4756 98.5669 9.74698 91.3972 10.1709C83.8592 10.6213 76.4001 12.317 69.4014 15.1652C62.4159 18.0134 55.904 21.9876 50.234 27.0084C45.0114 22.1068 38.1969 18.8877 31.0272 18.4903C23.897 18.0928 16.8589 20.7423 11.3599 25.2332C5.88729 29.6976 1.57234 36.0828 0.38836 43.1569C0.0989417 44.8658 -0.0326152 46.588 0.0068509 48.3234C0.0200063 48.9593 0.940872 48.9196 0.967183 48.2969C1.375 41.5805 4.36128 35.0098 8.82095 30.0553C13.2412 25.1272 19.3189 21.4974 25.9098 20.5701C32.5664 19.6295 39.2625 21.4974 44.8272 25.2067C46.2217 26.134 47.5372 27.1938 48.7738 28.3463C43.288 33.4466 38.0653 39.9378 37.4996 47.5948ZM56.667 40.8519C57.6142 43.912 58.0747 47.2107 57.5879 50.4033C57.1538 53.2647 56.0487 56.2851 53.7334 58.153C51.2733 60.1269 48.0503 60.1534 45.3797 58.6034C42.5645 56.9607 40.5648 53.9801 39.9334 50.7875C39.2098 47.1047 40.5122 43.1702 42.2619 39.9776C44.1168 36.6127 46.6426 33.6585 49.3526 30.9693C49.6815 30.6381 50.0236 30.3202 50.3525 30.0023C53.2072 33.0889 55.4173 36.8114 56.667 40.8519Z" fill="#829592"/>
</svg>
