<svg width="70" height="70" viewBox="0 0 70 70" fill="none" xmlns="http://www.w3.org/2000/svg">
<path fill-rule="evenodd" clip-rule="evenodd" d="M38.5526 40.383L46.3467 34.1824C43.9831 31.96 37.8187 30.9267 34.6984 31.815C26.8771 34.0419 22.7421 34.2391 15.5362 30.8428L7.14233 50.074C14.1751 48.9303 19.3021 54.8071 21.3771 56.9332L31.9383 67.7552C32.9074 68.7482 34.5268 68.7368 35.5085 67.7552C36.49 66.7737 36.4902 65.1671 35.5085 64.1852L36.9369 65.6136C38.1404 66.817 40.1097 66.817 41.3133 65.6135C42.5165 64.4102 42.5167 62.4408 41.3131 61.2373L42.1645 62.0887C43.3677 63.2921 45.3373 63.292 46.5407 62.0885C47.7441 60.8851 47.7444 58.9158 46.5408 57.7122L47.1183 58.2897C48.3215 59.4929 50.2913 59.4931 51.4947 58.2897C52.6983 57.0863 52.6712 55.1433 51.4947 53.9134L38.5526 40.383Z" fill="#D8DDE1"/>
<path fill-rule="evenodd" clip-rule="evenodd" d="M39.5612 44.8482C39.1042 44.3784 39.1147 43.627 39.5845 43.17C40.0543 42.7131 40.8057 42.7235 41.2627 43.1932L49.1182 51.2121C49.2647 51.3626 49.363 51.5422 49.4137 51.7317L51.495 53.9133C52.6698 55.1448 52.6984 57.0864 51.495 58.2898C51.0981 58.6866 50.6178 58.9527 50.1092 59.0876C50.7828 57.9107 50.6042 56.381 49.619 55.352L39.5612 44.8482ZM35.5084 64.1852L29.5097 57.9869C29.0526 57.5171 28.3012 57.5066 27.8315 57.9636C27.3617 58.4205 27.3512 59.172 27.8082 59.6419L33.6323 65.6238C34.3956 66.3871 34.5651 67.5282 34.1416 68.4595C34.6433 68.3744 35.1246 68.1389 35.5084 67.7553C36.4674 66.7962 36.5083 65.1851 35.5084 64.1852ZM41.3132 61.2374L35.3145 55.0391C34.8576 54.5693 34.1062 54.5589 33.6363 55.0158C33.1665 55.4729 33.1561 56.2242 33.613 56.6941L39.4371 62.6762C40.4241 63.6632 40.6235 65.203 39.9283 66.4115C40.4367 66.2763 40.9165 66.0105 41.3133 65.6137C42.4986 64.4282 42.5339 62.4581 41.3132 61.2374ZM46.541 57.7123C46.6362 57.8075 42.5507 53.5721 40.5423 51.5141C40.0854 51.0443 39.334 51.0338 38.8641 51.4908C38.3944 51.9477 38.384 52.6991 38.8409 53.1689L44.665 59.151C45.6728 60.1589 45.8364 61.7039 45.1559 62.8863C45.6642 62.7511 46.1441 62.4853 46.5409 62.0886C47.7325 60.8969 47.7548 58.9261 46.541 57.7123Z" fill="#D8DDE1"/>
<path fill-rule="evenodd" clip-rule="evenodd" d="M2.36523 27.0527C8.069 25.9001 13.7728 26.5407 19.4765 28.9743L11.3328 52.4909H2.36523V27.0527Z" fill="#1A685B"/>
<path fill-rule="evenodd" clip-rule="evenodd" d="M59.9956 29.6294L64.0165 48.515C59.5154 48.515 56.7999 50.7589 53.1686 52.241C51.4622 52.9375 49.6094 52.5642 48.3056 51.2613L36.4741 39.4371C35.5891 40.2256 33.1341 41.7662 33.1341 44.386C33.1341 48.3489 29.1329 50.8328 25.1699 50.8328V40.5307C25.1699 39.2477 25.6473 38.1436 26.582 37.2647C28.2918 35.6572 30.1991 33.8636 32.0097 32.1613C34.3733 29.9389 37.4861 29.1816 40.6064 30.0699C46.1259 31.6413 50.4074 34.1486 59.9956 29.6294Z" fill="#D8DDE1"/>
<path fill-rule="evenodd" clip-rule="evenodd" d="M67.6347 27.0527C61.931 25.9001 56.2272 26.5407 50.5234 28.9743L58.6674 52.4909H67.6347V27.0527Z" fill="#FFAC00"/>
<path fill-rule="evenodd" clip-rule="evenodd" d="M11.4688 23.2564H28.7177C28.8951 23.2564 29.0401 23.1113 29.0401 22.934V18.9689C29.0401 14.7823 25.6148 11.3569 21.4282 11.3569H18.7583C14.5717 11.3569 11.1462 14.7823 11.1462 18.9689V22.934C11.1462 23.1112 11.2913 23.2564 11.4688 23.2564Z" fill="#FFAC00"/>
<path d="M20.0932 12.1482C23.0689 12.1482 25.4812 9.76552 25.4812 6.82631C25.4812 3.8871 23.0689 1.50439 20.0932 1.50439C17.1174 1.50439 14.7051 3.8871 14.7051 6.82631C14.7051 9.76552 17.1174 12.1482 20.0932 12.1482Z" fill="#D8DDE1"/>
<path fill-rule="evenodd" clip-rule="evenodd" d="M41.2826 23.2564H58.5316C58.7089 23.2564 58.854 23.1113 58.854 22.934V18.9689C58.854 14.7823 55.4286 11.3569 51.242 11.3569H48.5722C44.3856 11.3569 40.9602 14.7823 40.9602 18.9689V22.934C40.9602 23.1112 41.1053 23.2564 41.2826 23.2564Z" fill="#FFAC00"/>
<path d="M49.9071 12.1482C52.8829 12.1482 55.2952 9.76552 55.2952 6.82631C55.2952 3.8871 52.8829 1.50439 49.9071 1.50439C46.9314 1.50439 44.519 3.8871 44.519 6.82631C44.519 9.76552 46.9314 12.1482 49.9071 12.1482Z" fill="#D8DDE1"/>
<path fill-rule="evenodd" clip-rule="evenodd" d="M26.3756 27.1836H43.6246C43.8019 27.1836 43.947 27.0386 43.947 26.8612V22.8961C43.947 18.7095 40.5216 15.2842 36.335 15.2842H33.6652C29.4786 15.2842 26.0532 18.7095 26.0532 22.8961V26.8612C26.0532 27.0384 26.1983 27.1836 26.3756 27.1836Z" fill="#1A685B"/>
<path d="M35.0001 16.0755C37.9759 16.0755 40.3882 13.6928 40.3882 10.7536C40.3882 7.81434 37.9759 5.43164 35.0001 5.43164C32.0244 5.43164 29.6121 7.81434 29.6121 10.7536C29.6121 13.6928 32.0244 16.0755 35.0001 16.0755Z" fill="#D8DDE1"/>
<path fill-rule="evenodd" clip-rule="evenodd" d="M12.1721 18.9682C12.1721 15.8688 14.3133 13.2178 17.3103 12.5438C18.1525 12.9473 19.0971 13.1729 20.0939 13.1729C21.09 13.1729 22.0334 12.9473 22.8756 12.5438C25.0632 13.039 26.8531 14.6249 27.6174 16.7249C26.1586 18.1547 25.2178 20.0922 25.0547 22.2303H12.1721V18.9682ZM20.0937 2.52957C22.4985 2.52957 24.456 4.45689 24.456 6.82637C24.456 9.19434 22.4985 11.1219 20.0937 11.1219C17.6871 11.1219 15.7308 9.19447 15.7308 6.82637C15.7308 4.45689 17.6871 2.52957 20.0937 2.52957ZM34.9998 6.45709C37.4051 6.45709 39.3627 8.38359 39.3627 10.7529C39.3627 13.1223 37.4052 15.05 34.9998 15.05C32.595 15.05 30.6375 13.1223 30.6375 10.7529C30.6374 8.38359 32.595 6.45709 34.9998 6.45709ZM47.124 12.5438C47.9662 12.9473 48.9108 13.1729 49.9064 13.1729C50.9032 13.1729 51.8478 12.9473 52.69 12.5438C55.6868 13.2178 57.8281 15.8688 57.8281 18.9682V22.2303H44.9448C44.7824 20.0922 43.843 18.1547 42.3829 16.7249C43.147 14.6248 44.9364 13.0389 47.124 12.5438ZM49.9064 2.52957C52.313 2.52957 54.2693 4.45689 54.2693 6.82637C54.2693 9.19434 52.313 11.1219 49.9064 11.1219C47.5016 11.1219 45.5453 9.19447 45.5453 6.82637C45.5453 4.45689 47.5016 2.52957 49.9064 2.52957ZM42.9215 26.1569V22.8949C42.9215 19.7954 40.779 17.146 37.7834 16.4705C36.9412 16.874 35.9966 17.1011 34.9998 17.1011C34.003 17.1011 33.0584 16.874 32.2162 16.4705C29.2212 17.146 27.0787 19.7955 27.0787 22.8949V26.1569H42.9215ZM11.1469 24.2811H25.0276V27.1823C25.0276 27.7483 25.4872 28.2077 26.0534 28.2077H43.9466C44.5131 28.2077 44.9719 27.7483 44.9719 27.1823V24.2811H58.8534C59.421 24.2811 59.8785 23.8217 59.8785 23.2557V18.9682C59.8785 15.46 57.787 12.3921 54.6889 11.0481C55.7031 9.92578 56.3197 8.44621 56.3197 6.82637C56.3197 3.32664 53.4433 0.478652 49.9064 0.478652C46.3708 0.478652 43.4944 3.32664 43.4944 6.82637C43.4944 8.44785 44.1124 9.92852 45.1265 11.051C43.1676 11.9082 41.5785 13.4723 40.694 15.4355C40.4021 15.2659 40.0966 15.1129 39.7822 14.9762C40.7951 13.8536 41.4131 12.3729 41.4131 10.7528C41.4131 7.25293 38.5367 4.40658 34.9998 4.40658C31.4629 4.40658 28.5864 7.25293 28.5864 10.7528C28.5864 12.3728 29.2044 13.8536 30.2174 14.9762C29.9036 15.1129 29.5982 15.2659 29.3056 15.4355C28.4209 13.4723 26.8325 11.9082 24.873 11.0508C25.8879 9.92852 26.5071 8.44771 26.5071 6.82623C26.5071 3.3265 23.6287 0.478516 20.0937 0.478516C16.5568 0.478516 13.6799 3.3265 13.6799 6.82623C13.6799 8.44607 14.2965 9.92564 15.3108 11.048C12.2133 12.3919 10.1211 15.4599 10.1211 18.9681V23.2556C10.1211 23.8217 10.5804 24.2811 11.1469 24.2811ZM66.6119 51.465H59.4002L51.811 29.5531C56.7314 27.6213 61.7026 27.0662 66.6119 27.9014V51.465ZM55.6051 49.9651C55.9138 49.8094 56.2301 49.652 56.5471 49.4962L50.9044 33.2006C47.6175 33.3361 44.9872 32.5062 42.4388 31.6995C41.7526 31.482 41.0412 31.2565 40.3266 31.0528C37.5732 30.2693 34.7974 30.9448 32.711 32.9053L27.2835 38.0089C26.5508 38.6981 26.1939 39.5224 26.1939 40.5288V49.7451C27.6146 49.5755 28.9705 49.06 30.0246 48.2727C30.975 47.5629 32.1084 46.312 32.1084 44.3844C32.1084 41.6526 34.2244 39.9436 35.3606 39.0264C35.5345 38.8869 35.6834 38.7666 35.7917 38.6694C36.1976 38.3085 36.8142 38.3264 37.1982 38.7104L49.0312 50.5352C50.0487 51.5523 51.4514 51.834 52.7826 51.2913C53.7635 50.8907 54.6983 50.4204 55.6051 49.9651ZM50.7717 57.5641C49.9636 58.3707 48.651 58.3707 47.845 57.5641L41.393 50.9674C40.9967 50.5611 40.3473 50.553 39.9426 50.9495C39.5367 51.3447 39.5295 51.9941 39.9245 52.3988L45.8075 58.4281C45.8088 58.4294 45.8101 58.4309 45.812 58.4309C45.8133 58.4333 45.8146 58.4348 45.8172 58.4376C46.624 59.2443 46.624 60.5567 45.8172 61.3633C45.0105 62.1697 43.6966 62.1697 42.89 61.3633L36.1635 54.4919C35.7685 54.0872 35.119 54.0788 34.7143 54.4739C34.3084 54.8704 34.3013 55.5185 34.6963 55.9244L40.5793 61.9537C40.5812 61.9552 40.5838 61.9552 40.5851 61.9564C40.5864 61.9592 40.5877 61.9604 40.589 61.9619C40.9775 62.35 41.1908 62.8697 41.1908 63.4248C41.1908 63.9799 40.9775 64.5008 40.589 64.8877C39.781 65.6957 38.469 65.6957 37.6622 64.8889L30.3584 57.441C29.9635 57.035 29.3139 57.0266 28.9092 57.4231C28.5026 57.8182 28.4962 58.4676 28.8912 58.8725L34.7742 64.9018C34.7756 64.9033 34.7775 64.9045 34.7787 64.9059C34.7799 64.9074 34.7813 64.9086 34.7839 64.9101C35.3677 65.4954 35.3677 66.4468 34.7839 67.0305C34.4965 67.3176 34.1158 67.4722 33.704 67.4707C33.3077 67.4682 32.9411 67.3148 32.6717 67.04L22.1101 56.216C21.987 56.0916 21.855 55.9521 21.7106 55.8033C20.1138 54.1408 17.2509 51.1615 13.3739 49.7234L19.0365 33.3717C21.246 34.1072 23.2874 34.4682 25.4691 34.4682C26.3648 34.4682 27.2862 34.4053 28.2515 34.285L25.8783 36.5151C24.7435 37.5828 24.1431 38.9705 24.1431 40.529V50.8322C24.1431 51.3982 24.6025 51.8576 25.1683 51.8576C29.5886 51.8576 34.1596 49.0629 34.1596 44.3845C34.1596 42.7699 35.4322 41.6158 36.4084 40.8189L47.5823 51.9859C48.1209 52.5246 48.7389 52.9334 49.4019 53.207L50.7557 54.622C51.5661 55.4694 51.5732 56.7629 50.7717 57.5641ZM10.5999 51.465H3.38821V27.9014C8.29765 27.0662 13.2687 27.6213 18.1891 29.5531L10.5999 51.465ZM67.8414 26.0448C68.3195 26.1405 68.6629 26.5616 68.6629 27.0495V52.4904C68.6629 53.0563 68.2036 53.5157 67.6371 53.5157H58.6702C58.2327 53.5157 57.8441 53.2383 57.7004 52.8253L57.2235 51.4486C56.9941 51.5635 56.7628 51.6782 56.5251 51.7985C55.5843 52.2702 54.6119 52.7598 53.5578 53.1889C53.2092 53.3311 52.8567 53.4364 52.5011 53.5076C53.8195 55.1633 53.7248 57.5118 52.2209 59.0145C51.2027 60.0332 49.7793 60.4049 48.4656 60.1329C48.4109 61.1089 48.0113 62.0689 47.2665 62.8139C46.4913 63.5891 45.4564 64.0171 44.3539 64.0171C43.9647 64.0171 43.5846 63.9637 43.2212 63.8612C43.1252 64.7661 42.7315 65.6465 42.0394 66.3384C40.7068 67.6699 38.6816 67.8982 37.114 67.022C36.9484 67.5551 36.6559 68.0583 36.2331 68.4806C35.5624 69.1522 34.668 69.5212 33.7137 69.5212C33.7066 69.5212 33.6982 69.5212 33.6918 69.5212C32.7427 69.5157 31.8592 69.1424 31.2046 68.4713L20.6416 57.6486C20.5159 57.5199 20.3793 57.3765 20.2317 57.2232C18.7606 55.6906 16.1233 52.948 12.7023 51.6616L12.299 52.825C12.1572 53.238 11.7674 53.5154 11.3298 53.5154H2.36228C1.79653 53.5154 1.33716 53.056 1.33716 52.4902V27.0495C1.33716 26.5614 1.6806 26.1405 2.1587 26.0448C8.04431 24.8553 14.0052 25.5225 19.8773 28.0287C20.3728 28.2391 20.6202 28.7984 20.4437 29.3068L19.7079 31.4329C23.4078 32.662 26.5013 32.7261 30.9835 31.7157L31.307 31.411C33.9308 28.9431 37.4226 28.0941 40.8873 29.0799C41.6321 29.2931 42.357 29.5214 43.0581 29.7443C45.3624 30.4728 47.5563 31.1648 50.1988 31.1648L49.5564 29.3068C49.3797 28.7983 49.6272 28.2391 50.1221 28.0287C55.9942 25.5225 61.9565 24.8553 67.8414 26.0448Z" fill="#1F1F1F"/>
</svg>
