<svg width="54" height="54" viewBox="0 0 54 54" fill="none" xmlns="http://www.w3.org/2000/svg">
<path d="M14.5257 0.807859C14.4079 0.688211 14.2448 0.624578 14.0768 0.633719C13.9091 0.642625 13.7533 0.723133 13.649 0.854734L0.17247 17.8469C0.073095 17.9722 0.0292669 18.1327 0.051181 18.2912C0.073095 18.4496 0.158759 18.5922 0.288368 18.686C0.391376 18.7605 10.5925 26.2416 10.5925 35.2033C10.5925 44.2088 2.07548 52.2729 1.98946 52.3532C1.78755 52.5419 1.74489 52.846 1.88704 53.083C1.99532 53.2633 2.18821 53.3675 2.38954 53.3675C2.4527 53.3675 2.51657 53.3573 2.57903 53.3359C2.81013 53.2568 8.3047 51.3481 14.0297 46.871C17.4004 44.235 20.1382 41.2549 22.167 38.0137C24.7107 33.95 26.1389 29.4672 26.4118 24.69C26.412 24.6856 26.4123 24.6814 26.4124 24.6771C26.4165 24.5592 26.4971 21.7395 25.065 17.3696C23.7535 13.3671 20.8604 7.24497 14.5257 0.807859ZM25.2413 24.6313C24.6467 34.9878 18.4394 41.927 13.3361 45.9254C10.0721 48.4827 6.82872 50.2003 4.69122 51.1878C5.44825 50.3109 6.35563 49.1761 7.26806 47.8379C9.31919 44.8295 11.7644 40.1954 11.7644 35.2032C11.7644 31.2282 9.89212 26.9428 6.34989 22.8102C4.342 20.4676 2.35579 18.8087 1.462 18.1068L14.1527 2.10548C19.9834 8.17977 22.6865 13.9012 23.9306 17.671C25.2863 21.7789 25.2443 24.5021 25.2413 24.6313ZM52.6049 17.3694C51.2934 13.3671 48.4002 7.24497 42.0655 0.807859C41.9477 0.688094 41.7835 0.624344 41.6166 0.633719C41.4488 0.642625 41.2931 0.723133 41.1888 0.854734L27.7122 17.8469C27.6129 17.9722 27.5692 18.1327 27.5911 18.2912C27.613 18.4496 27.6986 18.5922 27.8281 18.686C27.9311 18.7605 38.1323 26.2416 38.1323 35.2033C38.1323 44.2088 29.6152 52.2729 29.5292 52.3532C29.3273 52.5419 29.2847 52.846 29.4269 53.083C29.5352 53.2633 29.728 53.3675 29.9293 53.3675C29.9925 53.3675 30.0565 53.3573 30.1188 53.3359C30.35 53.2568 35.8445 51.3481 41.5694 46.871C44.9402 44.235 47.6781 41.2549 49.7068 38.0137C52.2505 33.95 53.6786 29.4672 53.9517 24.69C53.9519 24.6856 53.9522 24.6814 53.9523 24.6771C53.9565 24.559 54.037 21.7393 52.6049 17.3694ZM52.7812 24.6313C52.1866 34.9878 45.9793 41.927 40.876 45.9254C37.612 48.4827 34.3685 50.2003 32.231 51.1878C32.9881 50.3109 33.8954 49.1761 34.8077 47.8379C36.859 44.8295 39.3041 40.1954 39.3041 35.2032C39.3041 31.2282 37.4318 26.9428 33.8895 22.8102C31.8816 20.4676 29.8954 18.8087 29.0018 18.1068L41.6926 2.10548C47.5233 8.17977 50.2263 13.9012 51.4705 17.671C52.8262 21.7789 52.7843 24.5021 52.7812 24.6313Z" fill="#1A685B"/>
</svg>
