<svg width="880" height="363" viewBox="0 0 880 363" fill="none" xmlns="http://www.w3.org/2000/svg">
<path d="M190.976 362.001C178.978 362.001 169.479 358.673 162.48 352.015C155.814 345.358 152.481 335.704 152.481 323.055V294.594H40.495C28.1632 294.594 18.3311 291.931 10.9986 286.605C3.66621 280.946 0 272.458 0 261.14C0 254.483 1.49981 247.659 4.49944 240.669C7.49907 233.678 12.8317 225.023 20.4975 214.704L149.981 26.4635C155.647 18.1417 161.98 11.8171 168.979 7.48968C175.978 3.1623 183.977 0.998612 192.976 0.998612C203.641 0.998612 212.14 4.32737 218.473 10.9849C225.139 17.3095 228.472 26.9629 228.472 39.945V233.678H246.969C257.968 233.678 266.3 236.341 271.966 241.667C277.632 246.66 280.465 254.15 280.465 264.136C280.465 273.79 277.632 281.279 271.966 286.605C266.634 291.931 258.301 294.594 246.969 294.594H228.472V323.055C228.472 335.704 225.139 345.358 218.473 352.015C212.14 358.673 202.975 362.001 190.976 362.001ZM152.481 233.678V96.3673H166.979L60.4925 252.652V233.678H152.481Z" fill="#1A685B"/>
<path d="M435.751 363C393.089 363 360.427 347.188 337.763 315.565C315.432 283.609 304.267 238.505 304.267 180.252C304.267 141.305 309.266 108.517 319.265 81.8872C329.597 54.9243 344.429 34.619 363.759 20.9711C383.424 6.99037 407.421 0 435.751 0C478.745 0 511.408 15.4787 533.738 46.436C556.069 77.0605 567.234 121.666 567.234 180.252C567.234 219.198 562.068 252.319 551.736 279.615C541.737 306.578 527.073 327.216 507.742 341.53C488.411 355.843 464.414 363 435.751 363ZM435.751 300.087C455.081 300.087 469.413 290.6 478.745 271.626C488.077 252.319 492.743 221.861 492.743 180.252C492.743 138.642 488.077 108.684 478.745 90.3755C469.413 72.0674 455.081 62.9133 435.751 62.9133C416.42 62.9133 402.088 72.0674 392.756 90.3755C383.424 108.684 378.758 138.642 378.758 180.252C378.758 221.861 383.424 252.319 392.756 271.626C402.088 290.6 416.42 300.087 435.751 300.087Z" fill="#FFAC00"/>
<path d="M790.511 362.001C778.513 362.001 769.014 358.673 762.015 352.015C755.349 345.358 752.016 335.704 752.016 323.055V294.594H640.03C627.698 294.594 617.866 291.931 610.534 286.605C603.201 280.946 599.535 272.458 599.535 261.14C599.535 254.483 601.035 247.659 604.034 240.669C607.034 233.678 612.367 225.023 620.032 214.704L749.516 26.4635C755.182 18.1417 761.515 11.8171 768.514 7.48968C775.513 3.1623 783.512 0.998612 792.511 0.998612C803.176 0.998612 811.675 4.32737 818.008 10.9849C824.674 17.3095 828.006 26.9629 828.006 39.945V233.678H846.504C857.503 233.678 865.835 236.341 871.501 241.667C877.167 246.66 880 254.15 880 264.136C880 273.79 877.167 281.279 871.501 286.605C866.168 291.931 857.836 294.594 846.504 294.594H828.006V323.055C828.006 335.704 824.674 345.358 818.008 352.015C811.675 358.673 802.51 362.001 790.511 362.001ZM752.016 233.678V96.3673H766.514L660.027 252.652V233.678H752.016Z" fill="#1A685B"/>
</svg>
