<svg width="141" height="100" viewBox="0 0 141 100" fill="none" xmlns="http://www.w3.org/2000/svg">
<path d="M64.2238 50.6555C51.276 42.1209 36.9973 35.3178 25.8111 24.3547L24.9511 24.3274C24.1392 27.8371 23.7411 31.7064 25.2984 35.078C26.6073 38.1539 29.1274 40.5107 31.8205 42.3932C39.0607 47.349 46.699 51.6926 53.9301 56.6497C55.5615 57.7245 56.644 59.5719 56.7962 61.5234C57.1969 69.9851 56.9237 78.4676 57.0564 86.9357C57.0486 88.6737 57.746 90.3621 59.0197 91.5476C62.0094 94.5128 65.2477 97.2083 68.3883 100C68.4677 86.0368 68.2166 72.0657 68.564 58.101C68.8801 54.9365 66.8193 52.1915 64.2238 50.6555Z" fill="#1D2229"/>
<path d="M80.1445 39.2101C80.1458 39.1371 80.1497 39.0655 80.1497 38.9912C80.1497 38.7307 80.1367 38.4727 80.1171 38.2174C80.0482 36.4612 79.438 34.8314 78.4648 33.4478C76.7267 30.8592 73.8046 29.1369 70.4752 29.0509C70.4076 29.0483 70.3387 29.047 70.271 29.0457C70.2515 29.0457 70.2319 29.0444 70.2124 29.0444C70.2072 29.0444 70.2033 29.0444 70.1981 29.0444C69.5828 29.0392 68.9648 29.0965 68.3533 29.2216C64.3383 29.9837 61.1795 33.1638 60.4444 37.1934C60.4353 37.239 60.4288 37.2859 60.4197 37.3315C60.4106 37.3862 60.3988 37.4409 60.391 37.4956C60.2427 38.3945 60.218 39.3143 60.3377 40.2276C60.7995 45.1652 65.4702 49.2598 70.4349 48.9628C75.6377 49.0892 80.2628 44.3952 80.1445 39.2101Z" fill="#F41E1E"/>
<path d="M115.392 24.3222C103.26 33.3297 90.5137 41.4774 77.631 49.3619C75.7991 50.5136 73.8099 51.4946 72.3007 53.0801C70.8969 54.5978 70.7798 56.7969 70.7941 58.7563C70.811 59.185 70.8266 59.6136 70.8409 60.0422C71.2547 72.4852 70.6822 84.9451 71.1103 97.3842C71.1402 98.2505 71.174 99.1169 71.213 99.982C73.3467 98.0981 75.2852 95.9237 77.536 94.1793C79.0452 92.9377 80.7652 91.7027 81.4547 89.7928C82.1572 88.0484 81.9764 86.1385 82.0102 84.3106C81.94 77.1661 82.0974 70.0229 81.8619 62.8849C81.8411 60.1126 83.5064 57.5539 85.8548 56.1677C92.5472 52.1538 99.2527 48.1386 105.651 43.6622C110.008 40.7582 114.437 37.2472 116.316 32.1767C117.353 29.6558 117.134 26.9082 116.59 24.304L115.392 24.3222Z" fill="#1D2229"/>
<path d="M122.697 0C121.227 0 120.035 1.19467 120.036 2.66553L120.04 18.4697L21.238 18.4919L21.2341 2.68766C21.2341 1.21551 20.0411 0.0221545 18.5722 0.0234573C17.1021 0.0234573 15.9103 1.21811 15.9116 2.68897L15.9155 18.4932L15.9168 23.8229L15.9207 39.6271C15.9207 41.0992 17.1138 42.2926 18.5826 42.2913C20.0528 42.2913 21.2445 41.0966 21.2432 39.6258L21.2393 23.8216L120.042 23.7994L120.045 39.6036C120.045 41.0758 121.239 42.2692 122.707 42.2679C124.178 42.2679 125.369 41.0732 125.368 39.6023L125.364 23.7981L125.363 18.4684L125.359 2.66422C125.359 1.19207 124.166 0 122.697 0Z" fill="#F41E1E"/>
<path d="M130.261 3.58069C128.791 3.58069 127.599 4.77536 127.601 6.24622L127.603 18.4664L127.604 23.7961L127.607 36.0164C127.607 37.4885 128.8 38.6819 130.269 38.6806C131.739 38.6806 132.931 37.4859 132.93 36.015L132.927 23.7948L132.926 18.4651L132.923 6.24491C132.923 4.77275 131.731 3.58069 130.261 3.58069Z" fill="#F41E1E"/>
<path d="M137.825 9.88428C136.355 9.88428 135.163 11.079 135.165 12.5498L135.166 18.4658L135.167 23.7955L135.169 29.7115C135.169 31.1837 136.362 32.377 137.831 32.3757C139.302 32.3757 140.492 31.1811 140.491 29.7102L140.487 12.5485C140.487 11.0776 139.297 9.88428 137.825 9.88428Z" fill="#F41E1E"/>
<path d="M11.0094 3.60742C9.53792 3.60742 8.34745 4.80208 8.34876 6.27293L8.35136 18.4931L8.35266 23.8229L8.35527 36.0431C8.35527 37.5152 9.547 38.7086 11.0172 38.7073C12.4873 38.7073 13.6791 37.5126 13.6778 36.0418L13.6752 23.8216L13.6739 18.4918L13.6713 6.27163C13.6713 4.80077 12.4795 3.60742 11.0094 3.60742Z" fill="#F41E1E"/>
<path d="M3.44654 9.91443C1.97638 9.91443 0.78465 11.1091 0.785951 12.5799L0.789858 29.7416C0.789858 31.2138 1.98289 32.4071 3.45175 32.4058C4.9219 32.4058 6.11363 31.2112 6.11233 29.7403L6.11103 23.8178L6.10973 18.4998L6.10842 12.5773C6.10842 11.1078 4.91669 9.91443 3.44654 9.91443Z" fill="#F41E1E"/>
</svg>
